{"title":"Boogie Nights(1997) Xvid{[{Superman}]}","uid":5021517,"size":1176385634,"categoryP":"video","categoryS":"movies","magnet":"?xt=urn:btih:266c76b999f021dcce2874de910adb5fce61cebd&amp;dn=Boogie+Nights%281997%29+Xvid%7B%5B%7BSuperman%7D%5D%7D&amp;tr=udp%3A%2F%2Ftracker.openbittorrent.com%3A80&amp;tr=udp%3A%2F%2Fopen.demonii.com%3A1337&amp;tr=udp%3A%2F%2Ftracker.coppersurfer.tk%3A6969&amp;tr=udp%3A%2F%2Fexodus.desync.com%3A6969","seeders":0,"leechers":1,"uploader":"thegr8bigmouth","files":2,"time":1248480641,"description":"Plot:\n\nEddie Adams, a young man working in a nightclub, is discovered by porn director Jack Horner, who soon puts Eddie, renamed Dirk Diggler, and his &quot;talent&quot; on the top of the pornography industry. But when the 1980s arrive, Dirk and his colleagues in the porn industry have to cope with a new era as well as the baggage they bring with them from the 1970s.\n\nCAST:\n\nLuis GuzmÃƒÂ¡n ... Maurice TT Rodriguez (as Luis Guzman)\nBurt Reynolds ... Jack Horner\nJulianne Moore ... Amber Waves\nRico Bueno ... Hot Traxx Waiter\nJohn C. Reilly ... Reed Rothchild\nNicole Ari Parker... Becky Barnett\nDon Cheadle ... Buck Swope\nHeather Graham ... Rollergirl\nMark Wahlberg ... Eddie Adams - Dirk Diggler\nWilliam H. Macy ... Little Bill\nSamson Barkhordarian... Hot Traxx Chef\nNina Hartley ... Little Bill's Wife\nBrad Braeden ... Big Stud\nJoanna Gleason ... Dirk's Mother\nLawrence Hudd ... Dirk's Father\n\n\nFormat : AVI at 1 008 Kbps\nLength : 1 GiB for 2h 35mn 37s 45ms\nFormat : AVI\nFormat/Info : Audio Video Interleave\nFile size : 1.10 GiB\nDuration : 2h 35mn\nOverall bit rate : 1 008 Kbps\nWriting application : VirtualDubMod 1.5.10.2 (build 2540/release)\nWriting library : VirtualDubMod build 2540/release\n\nVideo\nID : 0\nFormat : MPEG-4 Visual\nFormat profile : Streaming Video@L1\nFormat settings, BVOP : Yes\nFormat settings, QPel : No\nFormat settings, GMC : No warppoints\nFormat settings, Matrix : Default (H.263)\nCodec ID : DX50\nCodec ID/Hint : DivX 5\nDuration : 2h 35mn\nBit rate : 871 Kbps\nWidth : 688 pixels\nHeight : 288 pixels\nDisplay aspect ratio : 2.35\nFrame rate : 23.976 fps\nResolution : 24 bits\nColorimetry : 4:2:0\nScan type : Progressive\nBits/(Pixel*Frame) : 0.183\nStream size : 969 MiB (86%)\nWriting library : XviD 1.1.0 (UTC 2005-11-22)\n\nAudio\nID : 1\nFormat : MPEG Audio\nFormat version : Version 1\nFormat profile : Layer 3\nCodec ID : 55\nCodec ID/Hint : MP3\nDuration : 2h 35mn\nBit rate mode : Constant\nBit rate : 128 Kbps\nChannel(s) : 2 channels\nSampling rate : 48.0 KHz\nResolution : 16 bits\nStream size : 142 MiB (13%)\nAlignment : Aligned on interleaves\nInterleave, duration : 42 ms (1.00 video frame)\nInterleave, preload duration : 504 ms\n\nVideo #0 : MPEG-4 Visual at 871 Kbps\nAspect : 688 x 288 (2.389) at 23.976 fps\n\nAudio #0 : MPEG Audio at 128 Kbps\nInfos : 2 channels, 48.0 KHz","torrent":{"xt":"urn:btih:266c76b999f021dcce2874de910adb5fce61cebd","amp;dn":"Boogie+Nights%281997%29+Xvid%7B%5B%7BSuperman%7D%5D%7D","amp;tr":["udp%3A%2F%2Ftracker.openbittorrent.com%3A80","udp%3A%2F%2Fopen.demonii.com%3A1337","udp%3A%2F%2Ftracker.coppersurfer.tk%3A6969","udp%3A%2F%2Fexodus.desync.com%3A6969"],"infoHash":"266c76b999f021dcce2874de910adb5fce61cebd","infoHashBuffer":{"type":"Buffer","data":[38,108,118,185,153,240,33,220,206,40,116,222,145,10,219,95,206,97,206,189]},"announce":[],"urlList":[]}}